<svg xmlns="http://www.w3.org/2000/svg"  viewBox="0 0 24 24" width="24px" height="24px"><path d="M 11.941406 2 C 10.44006 2 9.0197829 2.3412832 7.7402344 2.9375 C 7.7318419 2.9350471 7.723233 2.9321205 7.7148438 2.9296875 L 7.7070312 2.9550781 C 4.3079768 4.5545168 1.9414062 8.0036548 1.9414062 12 C 1.9414062 17.511002 6.4304007 22 11.941406 22 C 17.452412 22 21.941406 17.511002 21.941406 12 C 21.941406 6.4889982 17.452412 2 11.941406 2 z M 11.941406 4 C 13.657837 4 15.156466 4.6541789 16.457031 5.5683594 C 15.82545 6.1959812 15.089919 6.7511088 14.279297 7.203125 C 13.218022 5.9232251 11.92657 4.9041032 10.568359 4.140625 C 11.013413 4.0578722 11.467449 4 11.941406 4 z M 7.9765625 5.1445312 C 9.5261871 5.727606 11.083012 6.6842895 12.335938 8.03125 C 10.255733 8.6629299 7.8727211 8.6247295 5.4804688 7.5253906 C 6.144503 6.5676373 6.9934191 5.7540149 7.9765625 5.1445312 z M 17.955078 6.8632812 C 18.812659 7.8685526 19.351381 9.0869574 19.626953 10.433594 C 18.504078 10.295389 17.358675 10.360744 16.236328 10.587891 C 16.008339 9.9709737 15.730811 9.388059 15.414062 8.8398438 C 16.357582 8.2827458 17.216233 7.6142914 17.955078 6.8632812 z M 4.4707031 9.3710938 C 7.6503928 10.893288 10.874955 10.783354 13.613281 9.71875 C 13.882417 10.169566 14.11829 10.647248 14.314453 11.154297 C 11.180821 12.379806 8.4850686 14.959562 7.4160156 18.427734 C 5.3641713 16.981851 3.9414062 14.7103 3.9414062 12 C 3.9414062 11.066479 4.1790273 10.202866 4.4707031 9.3710938 z M 17.800781 12.386719 C 18.486321 12.374364 19.15505 12.492293 19.818359 12.609375 C 19.618166 15.147299 18.276058 17.35498 16.294922 18.681641 C 16.755243 17.353288 17.110099 15.605394 16.900391 13.474609 C 16.868577 13.151845 16.819349 12.838322 16.763672 12.529297 C 16.879289 12.505865 16.993531 12.466165 17.109375 12.447266 C 17.342126 12.409292 17.572268 12.390837 17.800781 12.386719 z M 14.832031 13.134766 C 14.859562 13.312804 14.892087 13.488551 14.910156 13.671875 C 15.247834 17.102926 14.055291 19.157268 13.591797 19.822266 C 13.060483 19.935144 12.509851 20 11.941406 20 C 10.968416 20 10.062462 19.764916 9.2011719 19.449219 C 9.961496 16.505095 12.219059 14.259566 14.832031 13.134766 z"/></svg>