<svg width="20" height="20" viewBox="0 0 20 20" fill="none" xmlns="http://www.w3.org/2000/svg">
<path fill-rule="evenodd" clip-rule="evenodd" d="M8.08425 2.56894L8.08554 2.5681C8.65567 2.19859 9.32057 2.00195 10 2.00195C10.6794 2.00195 11.3443 2.19857 11.9144 2.56807L11.9158 2.56894L16.183 5.35716L16.184 5.3578C16.7417 5.72128 17.1999 6.21821 17.517 6.80354C17.8341 7.38887 18.0001 8.0443 18 8.71001V15C18 15.7957 17.6839 16.5587 17.1213 17.1213C16.5587 17.6839 15.7956 18 15 18H5C4.20435 18 3.44129 17.6839 2.87868 17.1213C2.31607 16.5587 2 15.7957 2 15V8.7098C1.99986 8.04409 2.16587 7.38887 2.48298 6.80354C2.80009 6.21821 3.25828 5.72128 3.816 5.3578L8.08425 2.56894ZM10 0.00195312C8.93373 0.00195312 7.89027 0.310773 6.99575 0.89109L2.72353 3.68253C1.88716 4.22772 1.20005 4.973 0.724468 5.85084C0.248834 6.72877 -0.000178599 7.71174 0 8.71023V15C0 16.3261 0.526784 17.5979 1.46447 18.5355C2.40215 19.4732 3.67392 20 5 20H15C16.3261 20 17.5979 19.4732 18.5355 18.5355C19.4732 17.5979 20 16.3261 20 15V8.71001C20.0002 7.71152 19.7512 6.72877 19.2755 5.85084C18.8001 4.97319 18.1131 4.22803 17.277 3.68287L17.276 3.68223L13.007 0.892868L13.0042 0.89109C12.1097 0.310773 11.0663 0.00195312 10 0.00195312ZM7 13C6.44772 13 6 13.4477 6 14C6 14.5523 6.44772 15 7 15H13C13.5523 15 14 14.5523 14 14C14 13.4477 13.5523 13 13 13H7Z" fill="#303037"/>
</svg>
