<svg width="123" height="122" viewBox="0 0 123 122" fill="none" xmlns="http://www.w3.org/2000/svg">
<g clip-path="url(#clip0_1651_42)">
<path fill-rule="evenodd" clip-rule="evenodd" d="M120.03 90.3601L119.48 91.7901C110.11 110.04 93.5003 121.24 69.8103 121.73C58.7403 121.96 48.1804 119.12 41.2904 116.03C26.4104 109.35 13.9004 96.9501 7.07035 83.7101C-2.72965 64.7301 -4.49965 38.3201 15.8804 18.6001C16.1904 18.6001 13.4104 22.8801 13.7204 22.8801L13.1604 24.7101C-1.52965 70.6901 43.7203 110.09 87.7003 105.59C98.2803 104.49 111.76 98.7001 120.03 90.3601Z" fill="#32BBFF"/>
<path fill-rule="evenodd" clip-rule="evenodd" d="M93.4103 71.3501C104.48 71.4301 116.03 66.2501 122.88 58.9901C116.89 74.1901 99.5503 83.9601 76.3003 80.8501C56.8303 78.2401 38.2903 58.6501 36.3803 39.0201C34.9803 24.7301 39.9603 16.2101 48.1703 5.86011C45.3203 11.2701 44.2503 15.4401 43.9903 18.1001C40.8603 49.0201 68.6703 71.1901 93.4103 71.3501Z" fill="#32BBFF"/>
<path fill-rule="evenodd" clip-rule="evenodd" d="M121.771 32.97C120.051 36.92 110.151 44.37 105.771 45.3C88.4507 48.99 77.3607 40.78 71.5507 31.43C70.6907 30.03 69.0907 26.22 68.8007 25.25C66.5507 17.59 67.5807 6 74.3007 0C72.2807 5.7 71.9807 12.33 73.0507 16.64C73.7007 19.24 75.6607 23.79 77.6307 26.65C81.2107 31.86 83.4807 33.12 88.0907 35.89C90.1607 37.13 92.3907 38.13 93.3507 38.41C97.7107 39.69 106.921 43.07 121.771 32.97Z" fill="#32BBFF"/>
</g>
<defs>
<clipPath id="clip0_1651_42">
<rect width="122.88" height="121.74" fill="white"/>
</clipPath>
</defs>
</svg>
