<svg width="154" height="142" viewBox="0 0 154 142" fill="none" xmlns="http://www.w3.org/2000/svg">
<path d="M144.022 0C144.125 0 144.227 0.00170004 144.328 0.00488281C150.7 0.205088 155.033 6.64905 152.733 12.6602L111.337 120.839C106.568 133.3 94.6076 141.53 81.2637 141.53H56.4268L56.1221 141.526C49.7504 141.327 45.4167 134.882 47.7158 128.871L89.1123 20.6924C93.8803 8.22972 105.842 0 119.186 0H144.022ZM28.6465 0C47.7545 0 62.4469 12.7308 63.6162 29.5762C64.8952 48.0204 50.4568 63.4091 32.3516 63.6904C31.982 63.6962 31.6108 63.6964 31.2383 63.6895C26.0241 63.5922 20.5307 62.2414 15.0391 59.3564C5.69773 54.4471 0 44.5849 0 34.0303V7.94434C0 3.55634 3.55634 0 7.94434 0H28.6465Z" fill="url(#paint0_linear_1713_127)"/>
<defs>
<linearGradient id="paint0_linear_1713_127" x1="162.099" y1="13.0588" x2="67.1019" y2="101.659" gradientUnits="userSpaceOnUse">
<stop stop-color="#4D4D4D"/>
<stop offset="1"/>
</linearGradient>
</defs>
</svg>
